<svg fill="none" version="1.1" viewBox="0 0 16.015 20.65" xmlns="http://www.w3.org/2000/svg">
 <title>Sanity</title>
 <g fill="currentColor">
  <path d="m1.7113 2.6348c0 2.7844 1.7502 4.4412 5.2541 5.3148l3.7129 0.84577c3.3161 0.74827 5.3356 2.6069 5.3356 5.635 0.0258 1.3192-0.4108 2.607-1.2365 3.6476 0-3.0211-1.5907-4.6535-5.4277-5.635l-3.6456-0.8144c-2.9193-0.6544-5.1726-2.1823-5.1726-5.4714-0.015355-1.2702 0.39968-2.5093 1.1798-3.5223"/>
  <path d="m12.496 13.689c1.5836 0.9954 2.278 2.3876 2.278 4.3855-1.3108 1.6497-3.6137 2.5756-6.3205 2.5756-4.5562 0-7.7448-2.2032-8.4533-6.0318h4.3755c0.56331 1.7577 2.0549 2.5721 4.046 2.5721 2.4305 0 4.046-1.2739 4.0779-3.5084" opacity=".7"/>
  <path d="m3.9857 6.7627c-0.72317-0.42222-1.3165-1.0289-1.7169-1.7557-0.40046-0.72678-0.59315-1.5465-0.5576-2.3722 1.2648-1.6358 3.465-2.6348 6.1469-2.6348 4.6412 0 7.3267 2.4085 7.9892 5.7986h-4.2089c-0.4641-1.3365-1.6262-2.3772-3.7448-2.3772-2.2639 0-3.8086 1.2948-3.8972 3.3413" opacity=".7"/>
 </g>
</svg>
