<svg width="41" height="41" fill="none" version="1.1" viewBox="0 0 82.676 84" xmlns="http://www.w3.org/2000/svg">
 <g fill="currentColor">
  <path d="m50.206-2e-7 9.694 5.5746-38.176 21.954-9.694-5.5747z"/>
  <path d="m60.291 6.7451-37.936 21.806-0.0013 11.032 37.936-21.806z"/>
  <path d="m45.036 28.276-22.601 12.991-0.0012 11.033 22.601-12.991z"/>
  <path d="m36.372 45.717-13.991 8.0421-0.0013 11.033 13.991-8.0421z"/>
  <path d="m11.341 23.017 9.751 5.6047-0.0038 11.035-9.751-5.6046z"/>
  <path d="m11.434 35.657 9.6327 5.5367-0.0038 11.035-9.6327-5.5366z"/>
  <path d="m11.43 48.221 9.6359 5.5386-4e-3 11.763-9.6359-5.5386z"/>
  <path d="m32.902 84-9.694-5.5746 37.743-21.704 9.6939 5.5746z"/>
  <path d="m22.44 77.471 37.879-21.773 0.0012-11.032-37.879 21.773z"/>
  <path d="m37.638 55.974 22.601-12.991 0.0013-11.033-22.601 12.991z"/>
  <path d="m46.302 38.532 13.99-8.0421 0.0012-11.033-13.99 8.0421z"/>
  <path d="m71.334 61.306-9.7509-5.6046 0.0037-11.035 9.751 5.6046z"/>
  <path d="m71.242 48.595-9.6327-5.5367 0.0037-11.035 9.6327 5.5366z"/>
  <path d="m71.245 36.031-9.636-5.5386 0.0039-11.552 9.636 5.5385z"/>
 </g>
</svg>
