<svg version="1.1" viewBox="0 0 24 24" xmlns="http://www.w3.org/2000/svg">
 <g transform="translate(-6.3258 -852.72)">
  <path d="m18.402 853.08a1.5955 1.5824 0 0 0-0.1592 2.1e-4 1.5955 1.5824 0 0 0-0.61144 0.15472l-8.3436 3.9867a1.5955 1.5824 0 0 0-0.86328 1.0735l-2.0584 8.955a1.5955 1.5824 0 0 0 0.21662 1.2133 1.5955 1.5824 0 0 0 0.090703 0.12591l5.7751 7.1804a1.5955 1.5824 0 0 0 1.2474 0.59543l9.2613-2e-3a1.5955 1.5824 0 0 0 1.2474-0.59436l5.773-7.1815a1.5955 1.5824 0 0 0 0.30839-1.3392l-2.0616-8.955a1.5955 1.5824 0 0 0-0.86328-1.0735l-8.3446-3.9845a1.5955 1.5824 0 0 0-0.61444-0.15494zm-0.0765 3.0477c0.2758-2e-5 0.49937 0.24846 0.4994 0.55489 1.59e-4 0.0434 0.0025 0.10168 0.0011 0.14193-0.0067 0.17673-0.0451 0.31202-0.0683 0.47485-0.04202 0.34854-0.07827 0.63743-0.05655 0.90596 0.01972 0.1344 0.09826 0.18749 0.16326 0.2497 0.0014 0.0362 0.0073 0.15648 0.01175 0.22302 1.5879 0.14106 3.0625 0.86719 4.1456 2.0029l0.18994-0.13552c0.06436 3e-3 0.20621 0.0232 0.30305-0.0331 0.22348-0.15046 0.42705-0.35916 0.67333-0.6093 0.11284-0.11965 0.19565-0.2336 0.32973-0.34894 0.03061-0.0262 0.07689-0.0616 0.11098-0.0886 0.23955-0.1911 0.57284-0.1708 0.74483 0.0447 0.17199 0.2156 0.11683 0.54518-0.12272 0.73629-0.03382 0.0273-0.07773 0.0648-0.10991 0.0886-0.14228 0.10506-0.27333 0.15883-0.4151 0.24223-0.29867 0.18447-0.54631 0.33738-0.7427 0.52181-0.09276 0.0993-0.0858 0.19315-0.09389 0.28277-0.02769 0.0254-0.1254 0.11192-0.17714 0.159 0.43045 0.6407 0.75321 1.3679 0.93584 2.163 0.18094 0.78775 0.20914 1.5751 0.10458 2.3316l0.20168 0.0586c0.03625 0.0514 0.11079 0.17597 0.21555 0.21662 0.25696 0.0808 0.54615 0.11062 0.89529 0.14725 0.16392 0.0135 0.30534 5e-3 0.47912 0.0385 0.0416 9e-3 0.10232 0.0244 0.14512 0.034 0.29437 0.071 0.48337 0.34166 0.42257 0.60823-0.06082 0.26665-0.34839 0.4287-0.64452 0.36497-0.0021-5.1e-4 -0.0051-5.8e-4 -0.0075-9.9e-4 -0.0032-7.6e-4 -0.0064-2e-3 -0.0096-2e-3 -0.04128-0.01-0.09301-0.0182-0.12912-0.0278-0.17085-0.0457-0.29458-0.11394-0.44818-0.17287-0.33044-0.11846-0.60411-0.21754-0.87074-0.25612-0.13541-0.0109-0.20447 0.0539-0.27958 0.10353-0.03648-9e-3 -0.1488-0.0272-0.21342-0.0374-0.47853 1.5039-1.4975 2.806-2.879 3.6217 0.02386 0.0575 0.06432 0.18 0.08322 0.20169-0.03157 0.0843-0.07895 0.16487-0.03841 0.29453 0.09694 0.25133 0.25376 0.49705 0.44284 0.79282 0.09155 0.13665 0.18522 0.24165 0.26784 0.39803 0.01977 0.0374 0.046 0.0949 0.06509 0.13446 0.12842 0.27458 0.03417 0.59085-0.21235 0.70961-0.24847 0.11976-0.55741-8e-3 -0.69041-0.28277-0.01899-0.0392-0.04575-0.091-0.06189-0.12806-0.07077-0.16208-0.09536-0.30101-0.14512-0.45777-0.11338-0.33225-0.20645-0.60731-0.34254-0.83982-0.07609-0.11251-0.16948-0.12688-0.25504-0.15472-0.01584-0.0272-0.07492-0.13569-0.1067-0.19208-0.27588 0.1043-0.56126 0.19112-0.85687 0.25826-1.2958 0.2942-2.593 0.17482-3.7519-0.26999l-0.11312 0.20488c-0.08419 0.0225-0.16541 0.0454-0.21522 0.10495-0.1819 0.21699-0.25448 0.56523-0.38662 0.89716-0.04977 0.15677-0.0733 0.29568-0.14406 0.45777-0.01601 0.0367-0.04291 0.0879-0.06189 0.12699-1.38e-4 2.9e-4 1.34e-4 7.5e-4 0 9.7e-4 -1.9e-4 3.8e-4 -8.63e-4 6.8e-4 -0.0011 9.6e-4 -0.13328 0.27519-0.44124 0.40115-0.68934 0.28173-0.24655-0.1187-0.3407-0.435-0.21235-0.70962 0.0191-0.0396 0.04426-0.097 0.06404-0.13446 0.08261-0.1564 0.1763-0.26243 0.26784-0.3991 0.18906-0.29577 0.35505-0.56108 0.45198-0.81244 0.02434-0.0835-0.01163-0.19786-0.04436-0.28239l0.0907-0.21768c-1.3293-0.78768-2.3791-2.043-2.8801-3.5961l-0.21769 0.0373c-0.05836-0.0326-0.17569-0.11003-0.28705-0.10135-0.26663 0.0387-0.54031 0.13758-0.87074 0.2561-0.15359 0.0589-0.27733 0.12606-0.44818 0.17179-0.03612 0.01-0.08784 0.0199-0.12912 0.0288-0.0032 8.3e-4 -0.0064 3e-3 -0.0096 3e-3 -0.0022 5e-4 -0.0052 6e-4 -0.0076 9.8e-4 -0.29612 0.0638-0.58363-0.0983-0.64452-0.36494-0.06087-0.26656 0.12822-0.53712 0.42257-0.60823 0.0023-5.1e-4 0.0051-2e-3 0.0075-2e-3 0.0014-3.1e-4 0.0027-7.4e-4 0.0043-9.6e-4 0.04184-0.01 0.09513-0.0238 0.13339-0.031 0.17378-0.0328 0.31521-0.0246 0.47912-0.0385 0.34913-0.0365 0.63833-0.0663 0.89529-0.14726 0.08147-0.0334 0.15936-0.14544 0.21448-0.21662l0.20915-0.0608c-0.23435-1.623 0.16221-3.2157 1.0191-4.5052l-0.16006-0.143c-0.01025-0.0623-0.02362-0.20635-0.10031-0.28812-0.1964-0.18439-0.44401-0.33736-0.74269-0.52181-0.14177-0.0833-0.27174-0.13715-0.41403-0.24222-0.03026-0.0224-0.07059-0.0566-0.10352-0.0833-0.0024-2e-3 -5e-3 -2e-3 -0.0075-4e-3 -0.2396-0.19105-0.29465-0.52065-0.12272-0.73629 0.09672-0.12131 0.24451-0.18135 0.39803-0.17609 0.1194 3e-3 0.24304 0.0476 0.34787 0.13126 0.03406 0.027 0.08052 0.0624 0.11098 0.0886 0.13408 0.11538 0.21581 0.22929 0.32866 0.34895 0.2463 0.25014 0.44985 0.45779 0.67333 0.60824 0.11738 0.0684 0.20749 0.0408 0.29665 0.0288 0.02869 0.0213 0.12518 0.0903 0.18034 0.12805 0.85-0.90185 1.9664-1.5698 3.2632-1.8642 0.30135-0.0684 0.60306-0.11384 0.90276-0.13872l0.01175-0.21129c0.06649-0.0644 0.14107-0.15697 0.1622-0.25825 0.02172-0.26852-0.01347-0.55741-0.05549-0.90595-0.02318-0.16282-0.06172-0.29811-0.06831-0.47484-0.0014-0.0363 6.61e-4 -0.0865 0.0011-0.12806-1.03e-4 -4e-3 -0.0011-0.01-0.0011-0.0139-3.3e-5 -0.30645 0.2236-0.55488 0.4994-0.5549zm-0.62532 3.8736c-0.17702 0.0214-0.35471 0.0514-0.53248 0.0917-0.97317 0.22094-1.8176 0.70067-2.4778 1.3499l2.1481 1.5228 0.0043-2e-3c0.07276 0.0532 0.1623 0.0843 0.2593 0.0843 0.23681 0 0.42969-0.18713 0.43964-0.42149l0.01069-4e-3zm1.2517 0 0.14832 2.6154 0.0021 9.7e-4c0.0038 0.09 0.03555 0.17919 0.09603 0.25504 0.14765 0.18513 0.41454 0.21945 0.60397 0.0811l0.0076 3e-3 2.1342-1.5131c-0.80518-0.78849-1.8559-1.303-2.9921-1.4427zm-5.0409 2.4202c-0.58208 0.94824-0.85785 2.0856-0.72989 3.2557l2.5141-0.72562 0.0022-0.01c0.08692-0.0238 0.16788-0.0746 0.22836-0.15046 0.14765-0.18515 0.12154-0.45222-0.05548-0.60611l2e-3 -0.0109zm8.8152 9.6e-4 -1.9506 1.7458 0.0011 4e-3c-0.06801 0.0591-0.11821 0.1391-0.13979 0.23369-0.05268 0.23086 0.08638 0.46103 0.31266 0.52288l0.0021 0.0109 2.5269 0.72776c0.05352-0.54512 0.02095-1.1092-0.10884-1.6743-0.13137-0.57194-0.35204-1.0995-0.64346-1.5718zm-4.803 1.8887-0.50046 0.62319 0.17927 0.77898 0.72349 0.34787 0.72135-0.3468 0.17927-0.77898-0.4994-0.62426zm2.576 2.1363c-0.05691 3e-3 -0.11398 0.0176-0.1686 0.0439-0.21335 0.10266-0.30615 0.35542-0.21342 0.5709l-0.0032 3e-3 1.0095 2.4383c0.97305-0.61991 1.7013-1.5462 2.0819-2.6154l-2.6005-0.43965-0.0043 4e-3c-0.03323-5e-3 -0.06724-9e-3 -0.10138-9e-3zm-4.3676 0.0109c-0.02835-4.3e-4 -0.0576 2e-3 -0.08643 9e-3l-0.0043-4e-3 -2.5781 0.43751c0.39788 1.1008 1.1417 1.9981 2.0755 2.5973l0.9988-2.4138-0.0075-0.01c0.03562-0.0827 0.04612-0.17646 0.02454-0.27105-0.04611-0.20199-0.22411-0.33974-0.42256-0.34252zm2.1779 1.0575c-0.15208 5e-3 -0.29635 0.0903-0.37241 0.23264h-0.0021l-1.2677 2.2921c0.87732 0.29894 1.8462 0.36582 2.8182 0.14511 0.17343-0.0394 0.343-0.0866 0.50794-0.14191l-1.2709-2.2964h-0.0096c-0.0425-0.0794-0.11002-0.14572-0.19741-0.18781-0.06669-0.0321-0.13682-0.0463-0.20595-0.0439z" fill="currentColor" stroke-width="0"/>
 </g>
</svg>
