<?xml version="1.0" encoding="UTF-8" standalone="no"?>
<!-- Created with Inkscape (http://www.inkscape.org/) -->

<svg
   xmlns:dc="http://purl.org/dc/elements/1.1/"
   xmlns:cc="http://creativecommons.org/ns#"
   xmlns:rdf="http://www.w3.org/1999/02/22-rdf-syntax-ns#"
   xmlns:svg="http://www.w3.org/2000/svg"
   xmlns="http://www.w3.org/2000/svg"
   xmlns:sodipodi="http://sodipodi.sourceforge.net/DTD/sodipodi-0.dtd"
   xmlns:inkscape="http://www.inkscape.org/namespaces/inkscape"
   width="380"
   height="380"
   viewBox="0 0 100.54166 100.54167"
   version="1.1"
   id="svg8"
   sodipodi:docname="flat me.svg"
   inkscape:version="0.92.4 (5da689c313, 2019-01-14)">
  <defs
     id="defs2">
    <clipPath
       id="clip0" />
    <mask
       id="mask0"
       mask-type="alpha"
       maskUnits="userSpaceOnUse"
       x="152"
       y="212"
       width="77"
       height="39">
      <path
         style="fill:#8b153a"
         inkscape:connector-curvature="0"
         id="Nose_3"
         d="m 152.76,212.36 c 0,10.078 4.003,19.744 11.13,26.87 7.126,7.126 16.792,11.13 26.87,11.13 10.078,0 19.744,-4.004 26.87,-11.13 7.126,-7.126 11.13,-16.792 11.13,-26.87 h -38 z" />
    </mask>
    <linearGradient
       gradientUnits="userSpaceOnUse"
       y2="450.633"
       x2="239.49"
       y1="0"
       x1="240"
       id="paint0_linear">
      <stop
         id="stop1592"
         stop-color="#312952" />
      <stop
         id="stop1594"
         stop-color="#5A4A94"
         offset="0.489583" />
      <stop
         id="stop1596"
         stop-color="#7B6BC6"
         offset="1" />
    </linearGradient>
    <mask
       height="39"
       width="77"
       y="315"
       x="202"
       maskUnits="userSpaceOnUse"
       mask-type="alpha"
       id="mask1">
      <path
         id="path1577"
         d="m 202.76,315.36 c 0,10.078 4.004,19.744 11.13,26.87 7.126,7.126 16.792,11.13 26.87,11.13 10.078,0 19.744,-4.004 26.87,-11.13 7.126,-7.126 11.13,-16.792 11.13,-26.87 h -38 z"
         inkscape:connector-curvature="0"
         style="fill:#8b153a" />
    </mask>
  </defs>
  <sodipodi:namedview
     id="base"
     pagecolor="#ffffff"
     bordercolor="#666666"
     borderopacity="1.0"
     inkscape:pageopacity="0.0"
     inkscape:pageshadow="2"
     inkscape:zoom="2"
     inkscape:cx="183.01724"
     inkscape:cy="108.92355"
     inkscape:document-units="px"
     inkscape:current-layer="layer1"
     showgrid="false"
     showguides="false"
     units="px"
     inkscape:pagecheckerboard="false"
     inkscape:window-width="1280"
     inkscape:window-height="1377"
     inkscape:window-x="1272"
     inkscape:window-y="549"
     inkscape:window-maximized="0" />
  <metadata
     id="metadata5">
    <rdf:RDF>
      <cc:Work
         rdf:about="">
        <dc:format>image/svg+xml</dc:format>
        <dc:type
           rdf:resource="http://purl.org/dc/dcmitype/StillImage" />
        <dc:title></dc:title>
      </cc:Work>
    </rdf:RDF>
  </metadata>
  <g
     inkscape:label="Layer 1"
     inkscape:groupmode="layer"
     id="layer1"
     transform="translate(0,-196.45832)">
    <g
       id="g4656">
      <circle
         r="50.270832"
         cy="246.72916"
         cx="50.270832"
         id="path4834"
         style="fill:#fafafa;fill-opacity:1;stroke-width:0.13194354" />
      <g
         id="g4625">
        <path
           style="fill:#800000;fill-opacity:1;stroke:none;stroke-width:15.99999905;stroke-linecap:round;stroke-linejoin:round;stroke-miterlimit:4;stroke-dasharray:none;stroke-dashoffset:0;stroke-opacity:1"
           d="M 189.32617 250 C 133.47287 250 87.90365 292.43838 82.953125 346.95898 A 190 190 0 0 0 190 380 A 190 190 0 0 0 297.0293 346.75391 C 291.98333 292.33192 246.45714 250 190.67383 250 L 189.32617 250 z "
           transform="matrix(0.26458333,0,0,0.26458333,0,196.45832)"
           id="rect890" />
        <path
           d="m 63.177965,271.22202 c 0,7.10751 -5.761831,12.86934 -12.869333,12.86934 -7.107502,0 -12.869333,-5.76183 -12.869333,-12.86934 0,-7.1075 5.761831,-12.86933 12.869333,-12.86933 7.107502,0 12.869333,5.76183 12.869333,12.86933 z"
           id="NeckHole"
           inkscape:connector-curvature="0"
           style="fill:#fafafa;fill-opacity:1;stroke-width:0.26458332" />
        <path
           style="fill:#f5928a;stroke-width:0.26458332"
           inkscape:connector-curvature="0"
           id="Neck"
           d="m 50.308632,256.74402 c 5.55281,0 10.054166,4.50136 10.054166,10.05417 v 4.22275 c 0,5.55281 -4.501356,10.05417 -10.054166,10.05417 -5.552811,0 -10.054167,-4.50136 -10.054167,-10.05417 v -4.22275 c 0,-5.55281 4.501356,-10.05417 10.054167,-10.05417 z" />
        <g
           id="g4829">
          <path
             style="fill:#f5928a;stroke-width:0.26458332"
             inkscape:connector-curvature="0"
             id="Ears"
             d="m 23.765658,249.47857 c 0,-3.72031 3.015959,-6.7363 6.736266,-6.7363 h 39.613413 c 3.72031,0 6.73629,3.01599 6.73629,6.7363 0,3.7203 -3.01598,6.73629 -6.73629,6.73629 H 30.501924 c -3.720307,0 -6.736266,-3.01599 -6.736266,-6.73629 z" />
          <g
             id="g4800">
            <path
               style="fill:#a87b07;stroke-width:0.26458332"
               inkscape:connector-curvature="0"
               id="Rectangle 13"
               d="m 27.586215,239.02752 c 0,-1.16893 0.947738,-2.11666 2.116667,-2.11666 h 41.010415 c 1.16893,0 2.11667,0.94773 2.11667,2.11666 v 7.22842 c 0,1.16893 -0.94774,2.11667 -2.11667,2.11667 H 29.702882 c -1.168929,0 -2.116667,-0.94774 -2.116667,-2.11667 z" />
            <path
               style="fill:#a87b07;stroke-width:0.26458332"
               inkscape:connector-curvature="0"
               id="Rectangle 14"
               d="m 25.575382,232.88919 c 0,-3.99785 3.241146,-7.239 7.239,-7.239 h 34.787415 c 3.99812,0 7.239,3.24115 7.239,7.239 0,3.99812 -3.24088,7.239 -7.239,7.239 H 32.814382 c -3.998119,0 -7.239,-3.24088 -7.239,-7.239 z" />
          </g>
          <path
             style="fill:#ecb2a5;fill-opacity:1;stroke-width:0.26458332"
             inkscape:connector-curvature="0"
             id="Face"
             d="m 29.798132,237.51411 c 0,-11.32761 9.182894,-20.5105 20.5105,-20.5105 11.327606,0 20.510495,9.18289 20.510495,20.5105 v 12.065 c 0,11.3276 -9.182889,20.5105 -20.510495,20.5105 -11.327606,0 -20.5105,-9.1829 -20.5105,-20.5105 z" />
          <path
             style="fill:#f5928a;stroke-width:0.26458332"
             inkscape:connector-curvature="0"
             id="Nose"
             d="m 53.928132,248.37261 c 0,-0.47519 -0.09366,-0.94589 -0.275432,-1.3851 -0.182033,-0.43921 -0.448733,-0.8382 -0.784754,-1.17422 -0.336021,-0.33628 -0.735012,-0.60272 -1.174221,-0.78475 -0.439208,-0.18177 -0.909902,-0.27543 -1.385093,-0.27543 -0.475457,0 -0.945886,0.0937 -1.385094,0.27543 -0.439208,0.18203 -0.8382,0.44847 -1.174221,0.78475 -0.336285,0.33602 -0.602721,0.73501 -0.784754,1.17422 -0.181769,0.43921 -0.275431,0.90991 -0.275431,1.3851 z" />
          <g
             id="g4796">
            <path
               style="fill:#1f1f1f;stroke-width:0.26458332"
               inkscape:connector-curvature="0"
               id="Left"
               d="m 39.047965,239.47705 c 0,-1.30625 1.058863,-2.36511 2.365111,-2.36511 1.306247,0 2.36511,1.05886 2.36511,2.36511 v 1.30228 c 0,1.30625 -1.058863,2.36511 -2.36511,2.36511 -1.306248,0 -2.365111,-1.05886 -2.365111,-2.36511 z" />
            <path
               style="fill:#1f1f1f;stroke-width:0.26458332"
               inkscape:connector-curvature="0"
               id="Right"
               d="m 56.743298,239.47705 c 0,-1.30625 1.058863,-2.36511 2.365111,-2.36511 1.306248,0 2.36511,1.05886 2.36511,2.36511 v 1.30228 c 0,1.30625 -1.058862,2.36511 -2.36511,2.36511 -1.306248,0 -2.365111,-1.05886 -2.365111,-2.36511 z" />
          </g>
          <g
             id="g4792">
            <path
               style="fill:none;stroke:#663100;stroke-width:1.58749998"
               inkscape:connector-curvature="0"
               id="Left Lens"
               d="m 41.460965,247.15552 c 3.548063,0 6.424083,-2.87628 6.424083,-6.42408 0,-3.5478 -2.87602,-6.42408 -6.424083,-6.42408 -3.547798,0 -6.424083,2.87628 -6.424083,6.42408 0,3.5478 2.876285,6.42408 6.424083,6.42408 z" />
            <path
               style="fill:none;stroke:#663100;stroke-width:1.58749998"
               inkscape:connector-curvature="0"
               id="Right Lens"
               d="m 59.156298,247.15552 c 3.548063,0 6.424084,-2.87628 6.424084,-6.42408 0,-3.5478 -2.876021,-6.42408 -6.424084,-6.42408 -3.547798,0 -6.424083,2.87628 -6.424083,6.42408 0,3.5478 2.876285,6.42408 6.424083,6.42408 z" />
            <path
               style="fill:#663100;stroke-width:0.26458332"
               inkscape:connector-curvature="0"
               id="Link"
               d="m 47.292382,237.91627 h 6.434666 v 1.2065 h -6.434666 z" />
          </g>
          <g
             id="g4804">
            <path
               style="fill:#a87b07;stroke-width:0.26458332"
               inkscape:connector-curvature="0"
               id="Ellipse 4"
               d="m 42.667465,221.22636 c 0,4.77546 -3.871119,8.64658 -8.646583,8.64658 -4.775465,0 -8.646583,-3.87112 -8.646583,-8.64658 0,-4.77539 3.871118,-8.64659 8.646583,-8.64659 4.775464,0 8.646583,3.8712 8.646583,8.64659 z" />
            <path
               style="fill:#a87b07;stroke-width:0.26458332"
               inkscape:connector-curvature="0"
               id="Rectangle 15"
               d="m 37.037132,221.22636 c 0,-4.77539 3.871119,-8.64659 8.646583,-8.64659 h 31.223742 v 4.59317 c 0,7.0141 -5.68589,12.7 -12.699998,12.7 H 45.683715 c -4.775464,0 -8.646583,-3.87112 -8.646583,-8.64658 z" />
          </g>
          <g
             id="g4787">
            <path
               style="fill:#8b153a;stroke-width:0.26458332"
               inkscape:connector-curvature="0"
               id="Nose_2"
               d="m 40.455548,252.79644 c 0,2.66647 1.059392,5.22393 2.944813,7.10935 1.885421,1.88542 4.442883,2.94482 7.109354,2.94482 2.666471,0 5.223933,-1.0594 7.109354,-2.94482 1.885421,-1.88542 2.944813,-4.44288 2.944813,-7.10935 z" />
            <path
               d="m 45.482632,257.11973 c 0,-1.27714 1.035314,-2.31246 2.312458,-2.31246 h 5.228167 c 1.277143,0 2.312458,1.03532 2.312458,2.31246 0,1.27715 -1.035315,2.31246 -2.312458,2.31246 H 47.79509 c -1.277144,0 -2.312458,-1.03531 -2.312458,-2.31246 z"
               id="Rectangle 17"
               inkscape:connector-curvature="0"
               style="fill:#510c22;stroke-width:0.26458332" />
            <path
               style="fill:#ed2060;stroke-width:0.26458332"
               d="m 50.509577,257.22047 c -2.523617,0 -4.591145,1.93761 -4.804357,4.40593 1.461598,0.79525 3.110428,1.22422 4.804357,1.22422 2.666471,0 5.224224,-1.05962 7.109645,-2.94504 0.781008,-0.78101 1.417648,-1.67835 1.898592,-2.64997 -0.184888,-0.0215 -0.372097,-0.0351 -0.562756,-0.0351 z"
               id="Tong"
               inkscape:connector-curvature="0" />
            <g
               id="g4779">
              <path
                 style="fill:#f9f9f9;stroke-width:0.26458332"
                 inkscape:connector-curvature="0"
                 id="Tooth"
                 d="m 41.259882,252.79644 h 18.499666 v 1.15358 c 0,0.58447 -0.473868,1.05834 -1.058333,1.05834 h -16.383 c -0.584464,0 -1.058333,-0.47387 -1.058333,-1.05834 z" />
              <path
                 sodipodi:nodetypes="ccccc"
                 style="fill:#dae7ea;stroke-width:0.26458332"
                 inkscape:connector-curvature="0"
                 id="Tooth_2"
                 d="m 41.266496,252.79644 c -5.996781,0 24.499756,0 18.502974,0 v 1.00542 H 41.266496 Z" />
            </g>
          </g>
        </g>
      </g>
    </g>
  </g>
</svg>
