<?xml version="1.0" encoding="UTF-8" standalone="no"?>
<!-- Created with Inkscape (http://www.inkscape.org/) -->

<svg
        xmlns:dc="http://purl.org/dc/elements/1.1/"
        xmlns:cc="http://creativecommons.org/ns#"
        xmlns:rdf="http://www.w3.org/1999/02/22-rdf-syntax-ns#"
        xmlns:svg="http://www.w3.org/2000/svg"
        xmlns="http://www.w3.org/2000/svg"
        xmlns:xlink="http://www.w3.org/1999/xlink"
        xmlns:sodipodi="http://sodipodi.sourceforge.net/DTD/sodipodi-0.dtd"
        xmlns:inkscape="http://www.inkscape.org/namespaces/inkscape"
        width="380"
        height="380"
        viewBox="0 0 100.54166 100.54167"
        version="1.1"
        id="svg8"
        inkscape:version="0.92.4 (5da689c313, 2019-01-14)"
        sodipodi:docname="me-flat.svg">
  <defs
          id="defs2">
    <clipPath
            id="clip0" />
    <mask
            height="39"
            width="77"
            y="212"
            x="152"
            maskUnits="userSpaceOnUse"
            mask-type="alpha"
            id="mask0">
      <path
              d="m 152.76,212.36 c 0,10.078 4.003,19.744 11.13,26.87 7.126,7.126 16.792,11.13 26.87,11.13 10.078,0 19.744,-4.004 26.87,-11.13 7.126,-7.126 11.13,-16.792 11.13,-26.87 h -38 z"
              id="Nose_3"
              inkscape:connector-curvature="0"
              style="fill:#8b153a" />
    </mask>
    <linearGradient
            id="paint0_linear"
            x1="240"
            y1="0"
            x2="239.49001"
            y2="450.633"
            gradientUnits="userSpaceOnUse">
      <stop
              stop-color="#312952"
              id="stop1592" />
      <stop
              offset="0.489583"
              stop-color="#5A4A94"
              id="stop1594" />
      <stop
              offset="1"
              stop-color="#7B6BC6"
              id="stop1596" />
    </linearGradient>
    <mask
            id="mask1"
            mask-type="alpha"
            maskUnits="userSpaceOnUse"
            x="202"
            y="315"
            width="77"
            height="39">
      <path
              style="fill:#8b153a"
              inkscape:connector-curvature="0"
              d="m 202.76,315.36 c 0,10.078 4.004,19.744 11.13,26.87 7.126,7.126 16.792,11.13 26.87,11.13 10.078,0 19.744,-4.004 26.87,-11.13 7.126,-7.126 11.13,-16.792 11.13,-26.87 h -38 z"
              id="path1577" />
    </mask>
    <linearGradient
            spreadMethod="pad"
            gradientTransform="matrix(0.2094618,0,0,0.2094618,-3.5282422e-6,196.45831)"
            id="paint0_linear-5"
            x1="240"
            y1="0"
            x2="239.49001"
            y2="450.633"
            gradientUnits="userSpaceOnUse">
      <stop
              stop-color="#312952"
              id="stop1592-5" />
      <stop
              offset="0.489583"
              stop-color="#5A4A94"
              id="stop1594-9" />
      <stop
              offset="1"
              stop-color="#7B6BC6"
              id="stop1596-8" />
    </linearGradient>
    <clipPath
            id="clip0-3" />
    <mask
            height="39"
            width="77"
            y="212"
            x="152"
            maskUnits="userSpaceOnUse"
            mask-type="alpha"
            id="mask0-7">
      <path
              d="m 152.76,212.36 c 0,10.078 4.003,19.744 11.13,26.87 7.126,7.126 16.792,11.13 26.87,11.13 10.078,0 19.744,-4.004 26.87,-11.13 7.126,-7.126 11.13,-16.792 11.13,-26.87 h -38 z"
              id="Nose_3-4"
              inkscape:connector-curvature="0"
              style="fill:#8b153a" />
    </mask>
    <mask
            id="mask1-0"
            mask-type="alpha"
            maskUnits="userSpaceOnUse"
            x="202"
            y="315"
            width="77"
            height="39">
      <path
              style="fill:#8b153a"
              inkscape:connector-curvature="0"
              d="m 202.76,315.36 c 0,10.078 4.004,19.744 11.13,26.87 7.126,7.126 16.792,11.13 26.87,11.13 10.078,0 19.744,-4.004 26.87,-11.13 7.126,-7.126 11.13,-16.792 11.13,-26.87 h -38 z"
              id="path1577-3" />
    </mask>
    <clipPath
            id="clip0-9" />
    <mask
            height="39"
            width="77"
            y="212"
            x="152"
            maskUnits="userSpaceOnUse"
            mask-type="alpha"
            id="mask0-8">
      <path
              d="m 152.76,212.36 c 0,10.078 4.003,19.744 11.13,26.87 7.126,7.126 16.792,11.13 26.87,11.13 10.078,0 19.744,-4.004 26.87,-11.13 7.126,-7.126 11.13,-16.792 11.13,-26.87 h -38 z"
              id="Nose_3-9"
              inkscape:connector-curvature="0"
              style="fill:#8b153a" />
    </mask>
    <mask
            id="mask1-8"
            mask-type="alpha"
            maskUnits="userSpaceOnUse"
            x="202"
            y="315"
            width="77"
            height="39">
      <path
              style="fill:#8b153a"
              inkscape:connector-curvature="0"
              d="m 202.76,315.36 c 0,10.078 4.004,19.744 11.13,26.87 7.126,7.126 16.792,11.13 26.87,11.13 10.078,0 19.744,-4.004 26.87,-11.13 7.126,-7.126 11.13,-16.792 11.13,-26.87 h -38 z"
              id="path1577-8" />
    </mask>
    <linearGradient
            inkscape:collect="always"
            xlink:href="#paint0_linear-5"
            id="linearGradient1718"
            gradientUnits="userSpaceOnUse"
            gradientTransform="matrix(0.2094618,0,0,0.2094618,-3.5282422e-6,196.45831)"
            x1="240"
            y1="0"
            x2="239.49001"
            y2="450.633"
            spreadMethod="pad" />
    <linearGradient
            inkscape:collect="always"
            xlink:href="#paint0_linear-5"
            id="linearGradient1757"
            x1="52.160713"
            y1="196.83629"
            x2="52.91666"
            y2="295.86606"
            gradientUnits="userSpaceOnUse"
            gradientTransform="translate(0.75595242,1.5119074)" />
  </defs>
  <sodipodi:namedview
          id="base"
          pagecolor="#ffffff"
          bordercolor="#666666"
          borderopacity="1.0"
          inkscape:pageopacity="0.0"
          inkscape:pageshadow="2"
          inkscape:zoom="1.4"
          inkscape:cx="190.11076"
          inkscape:cy="116.83735"
          inkscape:document-units="px"
          inkscape:current-layer="layer1"
          showgrid="false"
          units="px"
          inkscape:window-width="1278"
          inkscape:window-height="1368"
          inkscape:window-x="-7"
          inkscape:window-y="557"
          inkscape:window-maximized="0" />
  <metadata
          id="metadata5">
    <rdf:RDF>
      <cc:Work
              rdf:about="">
        <dc:format>image/svg+xml</dc:format>
        <dc:type
                rdf:resource="http://purl.org/dc/dcmitype/StillImage" />
        <dc:title></dc:title>
      </cc:Work>
    </rdf:RDF>
  </metadata>
  <g
          inkscape:label="Layer 1"
          inkscape:groupmode="layer"
          id="layer1"
          transform="translate(0,-196.45831)">
    <g
            transform="translate(-252.11012,-270.25297)"
            id="layer1-6"
            inkscape:label="Layer 1">
      <circle
              style="fill:url(#linearGradient1718);fill-opacity:1;stroke-width:0.20946179"
              cx="50.270832"
              cy="246.72916"
              r="50.270832"
              id="circle1688" />
    </g>
    <g
            transform="translate(-380.62202,-163.66369)"
            id="layer1-2"
            inkscape:label="Layer 1">
      <circle
              r="50.138542"
              cy="246.72916"
              cx="50.270828"
              id="path4834"
              style="fill:#fafafa;fill-opacity:1;stroke-width:0.13194354" />
      <g
              id="g4864">
        <g
                id="g4775">
          <path
                  id="Body_2"
                  transform="matrix(0.26458333,0,0,0.26458333,0,196.45832)"
                  d="m 190.14258,249.85156 c -54.38892,0 -99.370724,40.23661 -106.826174,92.56446 30.164734,21.21405 66.987024,33.65625 106.826174,33.65625 39.83961,0 76.66319,-12.44174 106.82812,-33.65625 -7.45507,-52.32888 -52.43891,-92.56446 -106.82812,-92.56446 z"
                  style="fill:#062f5f;stroke-width:0.99999994"
                  inkscape:connector-curvature="0" />
          <path
                  style="fill:#ecb2a5;fill-opacity:1;stroke-width:0.26458332"
                  inkscape:connector-curvature="0"
                  id="NeckHole-0"
                  d="m 63.177965,271.22202 c 0,7.10751 -5.761831,12.86934 -12.869333,12.86934 -7.107502,0 -12.869333,-5.76183 -12.869333,-12.86934 0,-7.1075 5.761831,-12.86933 12.869333,-12.86933 7.107502,0 12.869333,5.76183 12.869333,12.86933 z" />
        </g>
        <path
                style="fill:#f5928a;stroke-width:0.26458332"
                inkscape:connector-curvature="0"
                id="Neck-9"
                d="m 50.308632,256.74402 c 5.55281,0 10.054166,4.50136 10.054166,10.05417 v 4.22275 c 0,5.55281 -4.501356,10.05417 -10.054166,10.05417 -5.552811,0 -10.054167,-4.50136 -10.054167,-10.05417 v -4.22275 c 0,-5.55281 4.501356,-10.05417 10.054167,-10.05417 z" />
        <g
                id="g4829">
          <path
                  style="fill:#f5928a;stroke-width:0.26458332"
                  inkscape:connector-curvature="0"
                  id="Ears-3"
                  d="m 23.765658,249.47857 c 0,-3.72031 3.015959,-6.7363 6.736266,-6.7363 h 39.613413 c 3.72031,0 6.73629,3.01599 6.73629,6.7363 0,3.7203 -3.01598,6.73629 -6.73629,6.73629 H 30.501924 c -3.720307,0 -6.736266,-3.01599 -6.736266,-6.73629 z" />
          <g
                  id="g4800">
            <path
                    style="fill:#a87b07;stroke-width:0.26458332"
                    inkscape:connector-curvature="0"
                    id="Rectangle 13-8"
                    d="m 27.586215,239.02752 c 0,-1.16893 0.947738,-2.11666 2.116667,-2.11666 h 41.010415 c 1.16893,0 2.11667,0.94773 2.11667,2.11666 v 7.22842 c 0,1.16893 -0.94774,2.11667 -2.11667,2.11667 H 29.702882 c -1.168929,0 -2.116667,-0.94774 -2.116667,-2.11667 z" />
            <path
                    style="fill:#a87b07;stroke-width:0.26458332"
                    inkscape:connector-curvature="0"
                    id="Rectangle 14-2"
                    d="m 25.575382,232.88919 c 0,-3.99785 3.241146,-7.239 7.239,-7.239 h 34.787415 c 3.99812,0 7.239,3.24115 7.239,7.239 0,3.99812 -3.24088,7.239 -7.239,7.239 H 32.814382 c -3.998119,0 -7.239,-3.24088 -7.239,-7.239 z" />
          </g>
          <path
                  style="fill:#ecb2a5;fill-opacity:1;stroke-width:0.26458332"
                  inkscape:connector-curvature="0"
                  id="Face-5"
                  d="m 29.798132,237.51411 c 0,-11.32761 9.182894,-20.5105 20.5105,-20.5105 11.327606,0 20.510495,9.18289 20.510495,20.5105 v 12.065 c 0,11.3276 -9.182889,20.5105 -20.510495,20.5105 -11.327606,0 -20.5105,-9.1829 -20.5105,-20.5105 z" />
          <path
                  style="fill:#f5928a;stroke-width:0.26458332"
                  inkscape:connector-curvature="0"
                  id="Nose-2"
                  d="m 53.928132,248.37261 c 0,-0.47519 -0.09366,-0.94589 -0.275432,-1.3851 -0.182033,-0.43921 -0.448733,-0.8382 -0.784754,-1.17422 -0.336021,-0.33628 -0.735012,-0.60272 -1.174221,-0.78475 -0.439208,-0.18177 -0.909902,-0.27543 -1.385093,-0.27543 -0.475457,0 -0.945886,0.0937 -1.385094,0.27543 -0.439208,0.18203 -0.8382,0.44847 -1.174221,0.78475 -0.336285,0.33602 -0.602721,0.73501 -0.784754,1.17422 -0.181769,0.43921 -0.275431,0.90991 -0.275431,1.3851 z" />
          <g
                  id="g4796">
            <path
                    style="fill:#1f1f1f;stroke-width:0.26458332"
                    inkscape:connector-curvature="0"
                    id="Left-2"
                    d="m 39.047965,239.47705 c 0,-1.30625 1.058863,-2.36511 2.365111,-2.36511 1.306247,0 2.36511,1.05886 2.36511,2.36511 v 1.30228 c 0,1.30625 -1.058863,2.36511 -2.36511,2.36511 -1.306248,0 -2.365111,-1.05886 -2.365111,-2.36511 z" />
            <path
                    style="fill:#1f1f1f;stroke-width:0.26458332"
                    inkscape:connector-curvature="0"
                    id="Right-7"
                    d="m 56.743298,239.47705 c 0,-1.30625 1.058863,-2.36511 2.365111,-2.36511 1.306248,0 2.36511,1.05886 2.36511,2.36511 v 1.30228 c 0,1.30625 -1.058862,2.36511 -2.36511,2.36511 -1.306248,0 -2.365111,-1.05886 -2.365111,-2.36511 z" />
          </g>
          <g
                  id="g4792">
            <path
                    style="fill:none;stroke:#663100;stroke-width:1.58749998"
                    inkscape:connector-curvature="0"
                    id="Left Lens-1"
                    d="m 41.460965,247.15552 c 3.548063,0 6.424083,-2.87628 6.424083,-6.42408 0,-3.5478 -2.87602,-6.42408 -6.424083,-6.42408 -3.547798,0 -6.424083,2.87628 -6.424083,6.42408 0,3.5478 2.876285,6.42408 6.424083,6.42408 z" />
            <path
                    style="fill:none;stroke:#663100;stroke-width:1.58749998"
                    inkscape:connector-curvature="0"
                    id="Right Lens-7"
                    d="m 59.156298,247.15552 c 3.548063,0 6.424084,-2.87628 6.424084,-6.42408 0,-3.5478 -2.876021,-6.42408 -6.424084,-6.42408 -3.547798,0 -6.424083,2.87628 -6.424083,6.42408 0,3.5478 2.876285,6.42408 6.424083,6.42408 z" />
            <path
                    style="fill:#663100;stroke-width:0.26458332"
                    inkscape:connector-curvature="0"
                    id="Link-3"
                    d="m 47.292382,237.91627 h 6.434666 v 1.2065 h -6.434666 z" />
          </g>
          <g
                  id="g4804">
            <path
                    style="fill:#a87b07;stroke-width:0.26458332"
                    inkscape:connector-curvature="0"
                    id="Ellipse 4-8"
                    d="m 42.667465,221.22636 c 0,4.77546 -3.871119,8.64658 -8.646583,8.64658 -4.775465,0 -8.646583,-3.87112 -8.646583,-8.64658 0,-4.77539 3.871118,-8.64659 8.646583,-8.64659 4.775464,0 8.646583,3.8712 8.646583,8.64659 z" />
            <path
                    style="fill:#a87b07;stroke-width:0.26458332"
                    inkscape:connector-curvature="0"
                    id="Rectangle 15-4"
                    d="m 37.037132,221.22636 c 0,-4.77539 3.871119,-8.64659 8.646583,-8.64659 h 31.223742 v 4.59317 c 0,7.0141 -5.68589,12.7 -12.699998,12.7 H 45.683715 c -4.775464,0 -8.646583,-3.87112 -8.646583,-8.64658 z" />
          </g>
          <g
                  id="g4787">
            <path
                    style="fill:#8b153a;stroke-width:0.26458332"
                    inkscape:connector-curvature="0"
                    id="Nose_2-8"
                    d="m 40.455548,252.79644 c 0,2.66647 1.059392,5.22393 2.944813,7.10935 1.885421,1.88542 4.442883,2.94482 7.109354,2.94482 2.666471,0 5.223933,-1.0594 7.109354,-2.94482 1.885421,-1.88542 2.944813,-4.44288 2.944813,-7.10935 z" />
            <path
                    d="m 45.482632,257.11973 c 0,-1.27714 1.035314,-2.31246 2.312458,-2.31246 h 5.228167 c 1.277143,0 2.312458,1.03532 2.312458,2.31246 0,1.27715 -1.035315,2.31246 -2.312458,2.31246 H 47.79509 c -1.277144,0 -2.312458,-1.03531 -2.312458,-2.31246 z"
                    id="Rectangle 17-0"
                    inkscape:connector-curvature="0"
                    style="fill:#510c22;stroke-width:0.26458332" />
            <path
                    style="fill:#ed2060;stroke-width:0.26458332"
                    d="m 50.509577,257.22047 c -2.523617,0 -4.591145,1.93761 -4.804357,4.40593 1.461598,0.79525 3.110428,1.22422 4.804357,1.22422 2.666471,0 5.224224,-1.05962 7.109645,-2.94504 0.781008,-0.78101 1.417648,-1.67835 1.898592,-2.64997 -0.184888,-0.0215 -0.372097,-0.0351 -0.562756,-0.0351 z"
                    id="Tong-5"
                    inkscape:connector-curvature="0" />
            <g
                    id="g4779">
              <path
                      style="fill:#f9f9f9;stroke-width:0.26458332"
                      inkscape:connector-curvature="0"
                      id="Tooth-8"
                      d="m 41.259882,252.79644 h 18.499666 v 1.15358 c 0,0.58447 -0.473868,1.05834 -1.058333,1.05834 h -16.383 c -0.584464,0 -1.058333,-0.47387 -1.058333,-1.05834 z" />
              <path
                      sodipodi:nodetypes="ccccc"
                      style="fill:#dae7ea;stroke-width:0.26458332"
                      inkscape:connector-curvature="0"
                      id="Tooth_2-4"
                      d="m 41.266496,252.79644 c -5.996781,0 24.499756,0 18.502974,0 v 1.00542 H 41.266496 Z" />
            </g>
          </g>
        </g>
      </g>
      <path
              inkscape:connector-curvature="0"
              id="rect3748"
              d="M 50.270832,196.45833 C 22.441747,196.45833 0,218.90051 0,246.73013 c 0,27.82963 22.441747,50.26986 50.270832,50.26986 27.829087,0 50.270828,-22.44023 50.270828,-50.26986 0,-27.82962 -22.44174,-50.2718 -50.270828,-50.2718 z m 0,2.38086 c 26.551081,0 47.888051,21.33935 47.888051,47.89094 0,26.55161 -21.33697,47.88898 -47.888051,47.88898 -26.551079,0 -47.8880504,-21.33737 -47.8880504,-47.88898 0,-26.55159 21.3369724,-47.89094 47.8880504,-47.89094 z"
              style="color:#000000;font-style:normal;font-variant:normal;font-weight:normal;font-stretch:normal;font-size:medium;line-height:normal;font-family:sans-serif;font-variant-ligatures:normal;font-variant-position:normal;font-variant-caps:normal;font-variant-numeric:normal;font-variant-alternates:normal;font-feature-settings:normal;text-indent:0;text-align:start;text-decoration:none;text-decoration-line:none;text-decoration-style:solid;text-decoration-color:#000000;letter-spacing:normal;word-spacing:normal;text-transform:none;writing-mode:lr-tb;direction:ltr;text-orientation:mixed;dominant-baseline:auto;baseline-shift:baseline;text-anchor:start;white-space:normal;shape-padding:0;clip-rule:nonzero;display:inline;overflow:visible;visibility:visible;opacity:1;isolation:auto;mix-blend-mode:normal;color-interpolation:sRGB;color-interpolation-filters:linearRGB;solid-color:#000000;solid-opacity:1;vector-effect:none;fill:#febe81;fill-opacity:1;fill-rule:nonzero;stroke:none;stroke-width:2.38124228;stroke-linecap:butt;stroke-linejoin:miter;stroke-miterlimit:4;stroke-dasharray:none;stroke-dashoffset:0;stroke-opacity:1;color-rendering:auto;image-rendering:auto;shape-rendering:auto;text-rendering:auto;enable-background:accumulate" />
    </g>
    <g
            id="g1836"
            transform="matrix(-0.85698742,0.72699293,-0.72699293,-0.85698742,273.16614,427.3639)">
      <path
              style="color:#000000;font-style:normal;font-variant:normal;font-weight:normal;font-stretch:normal;font-size:medium;line-height:normal;font-family:sans-serif;font-variant-ligatures:normal;font-variant-position:normal;font-variant-caps:normal;font-variant-numeric:normal;font-variant-alternates:normal;font-feature-settings:normal;text-indent:0;text-align:start;text-decoration:none;text-decoration-line:none;text-decoration-style:solid;text-decoration-color:#000000;letter-spacing:normal;word-spacing:normal;text-transform:none;writing-mode:lr-tb;direction:ltr;text-orientation:mixed;dominant-baseline:auto;baseline-shift:baseline;text-anchor:start;white-space:normal;shape-padding:0;clip-rule:nonzero;display:inline;overflow:visible;visibility:visible;opacity:1;isolation:auto;mix-blend-mode:normal;color-interpolation:sRGB;color-interpolation-filters:linearRGB;solid-color:#000000;solid-opacity:1;vector-effect:none;fill:#cdd9e5;fill-opacity:1;fill-rule:nonzero;stroke:none;stroke-width:4.23333311;stroke-linecap:round;stroke-linejoin:miter;stroke-miterlimit:4;stroke-dasharray:none;stroke-dashoffset:0;stroke-opacity:1;color-rendering:auto;image-rendering:auto;shape-rendering:auto;text-rendering:auto;enable-background:accumulate"
              d="m 23.449219,233.63672 a 2.1168782,2.1168782 0 0 0 -1.970703,3.06055 c 0,0 0.733246,1.52354 1.783203,3.30078 1.049957,1.77724 2.309904,3.80721 4.005859,5.17773 1.884515,1.52289 4.472181,2.46435 6.720703,3.21484 2.248523,0.7505 4.134766,1.20508 4.134766,1.20508 a 2.1168782,2.1168782 0 1 0 0.994141,-4.11328 c 0,0 -1.725941,-0.4188 -3.789063,-1.10742 -2.063122,-0.68862 -4.486267,-1.75348 -5.400391,-2.49219 -0.725569,-0.58634 -2.070945,-2.4301 -3.021484,-4.03906 -0.950539,-1.60896 -1.613281,-2.98242 -1.613281,-2.98242 a 2.1168782,2.1168782 0 0 0 -1.84375,-1.22461 z"
              id="path1771"
              inkscape:connector-curvature="0" />
      <path
              style="color:#000000;font-style:normal;font-variant:normal;font-weight:normal;font-stretch:normal;font-size:medium;line-height:normal;font-family:sans-serif;font-variant-ligatures:normal;font-variant-position:normal;font-variant-caps:normal;font-variant-numeric:normal;font-variant-alternates:normal;font-feature-settings:normal;text-indent:0;text-align:start;text-decoration:none;text-decoration-line:none;text-decoration-style:solid;text-decoration-color:#000000;letter-spacing:normal;word-spacing:normal;text-transform:none;writing-mode:lr-tb;direction:ltr;text-orientation:mixed;dominant-baseline:auto;baseline-shift:baseline;text-anchor:start;white-space:normal;shape-padding:0;clip-rule:nonzero;display:inline;overflow:visible;visibility:visible;opacity:1;isolation:auto;mix-blend-mode:normal;color-interpolation:sRGB;color-interpolation-filters:linearRGB;solid-color:#000000;solid-opacity:1;vector-effect:none;fill:#cdd9e5;fill-opacity:1;fill-rule:nonzero;stroke:none;stroke-width:4.23333311;stroke-linecap:round;stroke-linejoin:miter;stroke-miterlimit:4;stroke-dasharray:none;stroke-dashoffset:0;stroke-opacity:1;color-rendering:auto;image-rendering:auto;shape-rendering:auto;text-rendering:auto;enable-background:accumulate"
              d="m 77.904297,235.75781 a 2.1168782,2.1168782 0 0 0 -1.609375,0.76953 c 0,0 -1.213978,1.42931 -2.845703,3.04102 -1.631726,1.61171 -3.788368,3.3752 -4.933594,3.87109 -1.070687,0.46362 -3.711168,0.81706 -5.900391,0.90039 -2.189222,0.0833 -3.978515,-0.004 -3.978515,-0.004 a 2.1168782,2.1168782 0 1 0 -0.208985,4.22851 c 0,0 1.958415,0.0969 4.34961,0.006 2.391195,-0.091 5.163445,-0.26901 7.419922,-1.24609 2.33102,-1.00936 4.451037,-2.99039 6.226562,-4.74414 1.775525,-1.75375 3.099609,-3.3125 3.09961,-3.3125 a 2.1168782,2.1168782 0 0 0 -1.619141,-3.50977 z"
              id="path1773"
              inkscape:connector-curvature="0" />
      <path
              style="color:#000000;font-style:normal;font-variant:normal;font-weight:normal;font-stretch:normal;font-size:medium;line-height:normal;font-family:sans-serif;font-variant-ligatures:normal;font-variant-position:normal;font-variant-caps:normal;font-variant-numeric:normal;font-variant-alternates:normal;font-feature-settings:normal;text-indent:0;text-align:start;text-decoration:none;text-decoration-line:none;text-decoration-style:solid;text-decoration-color:#000000;letter-spacing:normal;word-spacing:normal;text-transform:none;writing-mode:lr-tb;direction:ltr;text-orientation:mixed;dominant-baseline:auto;baseline-shift:baseline;text-anchor:start;white-space:normal;shape-padding:0;clip-rule:nonzero;display:inline;overflow:visible;visibility:visible;opacity:1;isolation:auto;mix-blend-mode:normal;color-interpolation:sRGB;color-interpolation-filters:linearRGB;solid-color:#000000;solid-opacity:1;vector-effect:none;fill:#cdd9e5;fill-opacity:1;fill-rule:nonzero;stroke:none;stroke-width:5.29166651;stroke-linecap:round;stroke-linejoin:miter;stroke-miterlimit:4;stroke-dasharray:none;stroke-dashoffset:0;stroke-opacity:1;color-rendering:auto;image-rendering:auto;shape-rendering:auto;text-rendering:auto;enable-background:accumulate"
              d="m 56.121094,267.06055 a 2.6460978,2.6460978 0 0 0 -2.361328,3.54297 c 1.860294,5.37845 3.717939,9.5325 4.544922,18.09765 a 2.6460978,2.6460978 0 1 0 5.265624,-0.50781 c -0.886027,-9.17669 -3.032091,-14.17847 -4.810546,-19.32031 a 2.6460978,2.6460978 0 0 0 -2.638672,-1.8125 z"
              id="path1777"
              inkscape:connector-curvature="0" />
      <path
              style="color:#000000;font-style:normal;font-variant:normal;font-weight:normal;font-stretch:normal;font-size:medium;line-height:normal;font-family:sans-serif;font-variant-ligatures:normal;font-variant-position:normal;font-variant-caps:normal;font-variant-numeric:normal;font-variant-alternates:normal;font-feature-settings:normal;text-indent:0;text-align:start;text-decoration:none;text-decoration-line:none;text-decoration-style:solid;text-decoration-color:#000000;letter-spacing:normal;word-spacing:normal;text-transform:none;writing-mode:lr-tb;direction:ltr;text-orientation:mixed;dominant-baseline:auto;baseline-shift:baseline;text-anchor:start;white-space:normal;shape-padding:0;clip-rule:nonzero;display:inline;overflow:visible;visibility:visible;opacity:1;isolation:auto;mix-blend-mode:normal;color-interpolation:sRGB;color-interpolation-filters:linearRGB;solid-color:#000000;solid-opacity:1;vector-effect:none;fill:#cdd9e5;fill-opacity:1;fill-rule:nonzero;stroke:none;stroke-width:5.29166651;stroke-linecap:round;stroke-linejoin:miter;stroke-miterlimit:4;stroke-dasharray:none;stroke-dashoffset:0;stroke-opacity:1;color-rendering:auto;image-rendering:auto;shape-rendering:auto;text-rendering:auto;enable-background:accumulate"
              d="m 44.466797,265.60156 a 2.6460978,2.6460978 0 0 0 -1.658203,0.5293 c 0,0 -6.399233,4.57065 -9.583985,7.93555 -3.488032,3.68532 -8.183593,11.07226 -8.183593,11.07226 a 2.6460978,2.6460978 0 1 0 4.441406,2.87695 c 0,0 4.986492,-7.56407 7.585937,-10.31054 2.296165,-2.42605 8.857422,-7.29883 8.857422,-7.29883 a 2.6460978,2.6460978 0 0 0 -1.458984,-4.80469 z"
              id="path1775"
              inkscape:connector-curvature="0" />
      <path
              style="fill:#ecf3f3;fill-opacity:1;stroke-width:0.0871425"
              d="m 48.970656,235.60092 c 6.744277,0 12.173786,5.42951 12.173786,12.17379 v 15.4483 c 0,6.74428 -5.429509,12.17379 -12.173786,12.17379 -6.744277,0 -12.173785,-5.42951 -12.173785,-12.17379 v -15.4483 c 0,-6.74428 5.429508,-12.17379 12.173785,-12.17379 z"
              id="rect1789" />
      <path
              style="fill:#d8e3e3;fill-opacity:1;stroke:none;stroke-width:0.12845221;stroke-opacity:1"
              inkscape:connector-curvature="0"
              id="NeckHole"
              d="m 55.258203,241.42148 c 0,3.45062 -2.797304,6.24792 -6.247915,6.24792 -3.45061,0 -6.247914,-2.7973 -6.247914,-6.24792 0,-3.45061 2.797304,-6.24791 6.247914,-6.24791 3.450611,0 6.247915,2.7973 6.247915,6.24791 z" />
      <path
              id="rect1791"
              transform="matrix(0.26458333,0,0,0.26458333,0,196.45831)"
              d="m 206.07031,154.88281 v 94.70508 h 10 v -89.70703 c -2.04523,-1.85993 -4.26637,-3.52854 -6.625,-4.99805 z"
              style="fill:#bbc7d2;fill-opacity:1;stroke-width:0.32935748"
              inkscape:connector-curvature="0" />
      <path
              id="rect5292-9"
              transform="matrix(0.26458333,0,0,0.26458333,0,196.45831)"
              d="m 158.69727,156.22461 c -1.68205,1.17613 -3.2852,2.45622 -4.79102,3.8418 v 88.89843 h 10 v -92.74023 z"
              style="fill:#bbc7d2;fill-opacity:1;stroke-width:0.32935748"
              inkscape:connector-curvature="0" />
      <path
              d="m 49.010288,234.39258 c 2.695824,0 4.881185,2.18536 4.881185,4.88118 v 2.0501 c 0,2.69583 -2.185361,4.88119 -4.881185,4.88119 -2.69583,0 -4.881185,-2.18536 -4.881185,-4.88119 v -2.0501 c 0,-2.69582 2.185355,-4.88118 4.881185,-4.88118 z"
              id="Neck"
              inkscape:connector-curvature="0"
              style="fill:#bbc7d2;fill-opacity:1;stroke-width:0.12845221" />
      <g
              transform="matrix(0.61324889,0,0,0.61324889,17.778013,71.673028)"
              id="g1933">
        <path
                d="m 29.893905,259.58833 c 0,-2.94525 2.387634,-5.33291 5.332877,-5.33291 h 31.360619 c 2.945245,0 5.332896,2.38766 5.332896,5.33291 0,2.94523 -2.387651,5.33289 -5.332896,5.33289 H 35.226782 c -2.945243,0 -5.332877,-2.38766 -5.332877,-5.33289 z"
                id="Ears"
                inkscape:connector-curvature="0"
                style="fill:#f5928a;stroke-width:0.20946179" />
        <g
                id="g1908">
          <path
                  d="m 32.918513,251.31458 c 0,-0.9254 0.750292,-1.67569 1.675694,-1.67569 h 32.466579 c 0.925403,0 1.675697,0.75029 1.675697,1.67569 v 5.7225 c 0,0.9254 -0.750294,1.6757 -1.675697,1.6757 H 34.594207 c -0.925402,0 -1.675694,-0.7503 -1.675694,-1.6757 z"
                  id="Rectangle 13"
                  inkscape:connector-curvature="0"
                  style="fill:#a87b07;stroke-width:0.20946179" />
          <path
                  d="m 31.326603,246.45507 c 0,-3.16497 2.565907,-5.73088 5.730875,-5.73088 h 27.540037 c 3.165178,0 5.730875,2.56591 5.730875,5.73088 0,3.16518 -2.565697,5.73087 -5.730875,5.73087 H 37.057478 c -3.165177,0 -5.730875,-2.56569 -5.730875,-5.73087 z"
                  id="Rectangle 14"
                  inkscape:connector-curvature="0"
                  style="fill:#a87b07;stroke-width:0.20946179" />
        </g>
        <path
                d="m 34.669614,250.11646 c 0,-8.96769 7.269791,-16.23748 16.237479,-16.23748 8.967688,0 16.237475,7.26979 16.237475,16.23748 v 9.55146 c 0,8.96768 -7.269787,16.23748 -16.237475,16.23748 -8.967688,0 -16.237479,-7.2698 -16.237479,-16.23748 z"
                id="Face"
                inkscape:connector-curvature="0"
                style="fill:#ecb2a5;fill-opacity:1;stroke-width:0.20946179" />
        <path
                d="m 53.77253,258.71278 c 0,-0.3762 -0.07415,-0.74883 -0.21805,-1.09654 -0.14411,-0.34771 -0.355247,-0.66358 -0.621264,-0.92959 -0.266016,-0.26622 -0.581884,-0.47716 -0.929591,-0.62126 -0.347707,-0.1439 -0.720339,-0.21805 -1.096532,-0.21805 -0.376404,0 -0.748827,0.0742 -1.096533,0.21805 -0.347706,0.1441 -0.663575,0.35504 -0.929592,0.62126 -0.266225,0.26601 -0.477154,0.58188 -0.621263,0.92959 -0.143901,0.34771 -0.21805,0.72034 -0.21805,1.09654 z"
                id="Nose"
                inkscape:connector-curvature="0"
                style="fill:#f5928a;stroke-width:0.20946179" />
        <g
                id="g1899">
          <path
                  d="m 41.992398,251.67046 c 0,-1.03412 0.838267,-1.87238 1.87238,-1.87238 1.034112,0 1.872378,0.83826 1.872378,1.87238 v 1.03097 c 0,1.03411 -0.838266,1.87238 -1.872378,1.87238 -1.034113,0 -1.87238,-0.83827 -1.87238,-1.87238 z"
                  id="Left"
                  inkscape:connector-curvature="0"
                  style="fill:#1f1f1f;stroke-width:0.20946179" />
          <path
                  d="m 56.001203,251.67046 c 0,-1.03412 0.838267,-1.87238 1.87238,-1.87238 1.034113,0 1.872378,0.83826 1.872378,1.87238 v 1.03097 c 0,1.03411 -0.838265,1.87238 -1.872378,1.87238 -1.034113,0 -1.87238,-0.83827 -1.87238,-1.87238 z"
                  id="Right"
                  inkscape:connector-curvature="0"
                  style="fill:#1f1f1f;stroke-width:0.20946179" />
        </g>
        <g
                id="g1895">
          <path
                  d="m 43.90269,257.74925 c 2.808883,0 5.085732,-2.27706 5.085732,-5.08573 0,-2.80868 -2.276849,-5.08573 -5.085732,-5.08573 -2.808674,0 -5.085733,2.27705 -5.085733,5.08573 0,2.80867 2.277059,5.08573 5.085733,5.08573 z"
                  id="Left Lens"
                  inkscape:connector-curvature="0"
                  style="fill:none;stroke:#663100;stroke-width:1.25677085" />
          <path
                  d="m 57.911495,257.74925 c 2.808883,0 5.085733,-2.27706 5.085733,-5.08573 0,-2.80868 -2.27685,-5.08573 -5.085733,-5.08573 -2.808674,0 -5.085732,2.27705 -5.085732,5.08573 0,2.80867 2.277058,5.08573 5.085732,5.08573 z"
                  id="Right Lens"
                  inkscape:connector-curvature="0"
                  style="fill:none;stroke:#663100;stroke-width:1.25677085" />
          <path
                  d="m 48.519228,250.43484 h 5.094111 v 0.95515 h -5.094111 z"
                  id="Link"
                  inkscape:connector-curvature="0"
                  style="fill:#663100;stroke-width:0.20946179" />
        </g>
        <g
                id="g1874">
          <path
                  d="m 44.857836,237.22199 c 0,3.78058 -3.064636,6.84521 -6.845212,6.84521 -3.780576,0 -6.845211,-3.06463 -6.845211,-6.84521 0,-3.78051 3.064635,-6.84521 6.845211,-6.84521 3.780576,0 6.845212,3.0647 6.845212,6.84521 z"
                  id="Ellipse 4"
                  inkscape:connector-curvature="0"
                  style="fill:#a87b07;stroke-width:0.20946179" />
          <path
                  d="m 40.400489,237.22199 c 0,-3.78051 3.064635,-6.84521 6.845211,-6.84521 h 24.718796 v 3.63626 c 0,5.55283 -4.50133,10.05416 -10.054165,10.05416 H 47.2457 c -3.780576,0 -6.845211,-3.06463 -6.845211,-6.84521 z"
                  id="Rectangle 15"
                  inkscape:connector-curvature="0"
                  style="fill:#a87b07;stroke-width:0.20946179" />
        </g>
        <g
                id="g1890">
          <path
                  d="m 43.106735,262.21497 c 0,2.11096 0.838685,4.13562 2.33131,5.62824 1.492625,1.49262 3.517282,2.33132 5.628238,2.33132 2.110957,0 4.135614,-0.8387 5.628239,-2.33132 1.492625,-1.49262 2.33131,-3.51728 2.33131,-5.62824 z"
                  id="Nose_2"
                  inkscape:connector-curvature="0"
                  style="fill:#8b153a;stroke-width:0.20946179" />
          <path
                  style="fill:#510c22;stroke-width:0.20946179"
                  inkscape:connector-curvature="0"
                  id="Rectangle 17"
                  d="m 47.086509,265.63758 c 0,-1.01107 0.819624,-1.8307 1.830696,-1.8307 h 4.138966 c 1.011071,0 1.830696,0.81963 1.830696,1.8307 0,1.01108 -0.819625,1.8307 -1.830696,1.8307 h -4.138966 c -1.011072,0 -1.830696,-0.81962 -1.830696,-1.8307 z" />
          <path
                  inkscape:connector-curvature="0"
                  id="Tong"
                  d="m 51.066174,265.71733 c -1.997863,0 -3.634656,1.53394 -3.803449,3.48803 1.157098,0.62957 2.462422,0.96917 3.803449,0.96917 2.110956,0 4.135844,-0.83886 5.628469,-2.33149 0.618298,-0.6183 1.122305,-1.32869 1.503052,-2.09789 -0.14637,-0.017 -0.294577,-0.0278 -0.445515,-0.0278 z"
                  style="fill:#ed2060;stroke-width:0.20946179" />
          <g
                  id="g1882">
            <path
                    d="m 43.743499,262.21497 h 14.645569 v 0.91326 c 0,0.4627 -0.375146,0.83785 -0.837847,0.83785 H 44.581346 c -0.462701,0 -0.837847,-0.37515 -0.837847,-0.83785 z"
                    id="Tooth"
                    inkscape:connector-curvature="0"
                    style="fill:#f9f9f9;stroke-width:0.20946179" />
            <path
                    d="m 43.748735,262.21497 h 14.648188 v 0.5621 H 43.748735 Z"
                    id="Tooth_2"
                    inkscape:connector-curvature="0"
                    style="fill:#dae7ea;stroke-width:0.20946179"
                    sodipodi:nodetypes="ccccc" />
          </g>
        </g>
      </g>
      <path
              style="fill:#d6d6d6;fill-opacity:0.34848483;stroke-width:1.68905711;stroke-miterlimit:4;stroke-dasharray:none"
              d="M 70.024611,223.76813 A 21.11429,21.11429 0 0 1 48.91032,244.88242 21.11429,21.11429 0 0 1 27.79603,223.76813 21.11429,21.11429 0 0 1 48.91032,202.65384 21.11429,21.11429 0 0 1 70.024611,223.76813 Z"
              id="path1763" />
      <path
              style="color:#000000;font-style:normal;font-variant:normal;font-weight:normal;font-stretch:normal;font-size:medium;line-height:normal;font-family:sans-serif;font-variant-ligatures:normal;font-variant-position:normal;font-variant-caps:normal;font-variant-numeric:normal;font-variant-alternates:normal;font-feature-settings:normal;text-indent:0;text-align:start;text-decoration:none;text-decoration-line:none;text-decoration-style:solid;text-decoration-color:#000000;letter-spacing:normal;word-spacing:normal;text-transform:none;writing-mode:lr-tb;direction:ltr;text-orientation:mixed;dominant-baseline:auto;baseline-shift:baseline;text-anchor:start;white-space:normal;shape-padding:0;clip-rule:nonzero;display:inline;overflow:visible;visibility:visible;opacity:1;isolation:auto;mix-blend-mode:normal;color-interpolation:sRGB;color-interpolation-filters:linearRGB;solid-color:#000000;solid-opacity:1;vector-effect:none;fill:#fafafa;fill-opacity:1;fill-rule:nonzero;stroke:none;stroke-width:1.38999999;stroke-linecap:round;stroke-linejoin:miter;stroke-miterlimit:4;stroke-dasharray:none;stroke-dashoffset:0;stroke-opacity:1;color-rendering:auto;image-rendering:auto;shape-rendering:auto;text-rendering:auto;enable-background:accumulate"
              d="m 36.960938,209.62109 a 0.69506949,0.69506949 0 0 0 -0.427735,0.16407 c -4.193735,3.43124 -6.625,8.56386 -6.625,13.98242 a 0.69506949,0.69506949 0 1 0 1.388672,0 c 0,-5.00262 2.245372,-9.7384 6.117187,-12.90625 a 0.69506949,0.69506949 0 0 0 -0.453124,-1.24024 z"
              id="circle1765"
              inkscape:connector-curvature="0" />
      <path
              style="color:#000000;font-style:normal;font-variant:normal;font-weight:normal;font-stretch:normal;font-size:medium;line-height:normal;font-family:sans-serif;font-variant-ligatures:normal;font-variant-position:normal;font-variant-caps:normal;font-variant-numeric:normal;font-variant-alternates:normal;font-feature-settings:normal;text-indent:0;text-align:start;text-decoration:none;text-decoration-line:none;text-decoration-style:solid;text-decoration-color:#000000;letter-spacing:normal;word-spacing:normal;text-transform:none;writing-mode:lr-tb;direction:ltr;text-orientation:mixed;dominant-baseline:auto;baseline-shift:baseline;text-anchor:start;white-space:normal;shape-padding:0;clip-rule:nonzero;display:inline;overflow:visible;visibility:visible;opacity:1;isolation:auto;mix-blend-mode:normal;color-interpolation:sRGB;color-interpolation-filters:linearRGB;solid-color:#000000;solid-opacity:1;vector-effect:none;fill:#fafafa;fill-opacity:1;fill-rule:nonzero;stroke:none;stroke-width:1.38999999;stroke-linecap:round;stroke-linejoin:miter;stroke-miterlimit:4;stroke-dasharray:none;stroke-dashoffset:0;stroke-opacity:1;color-rendering:auto;image-rendering:auto;shape-rendering:auto;text-rendering:auto;enable-background:accumulate"
              d="m 43.519531,206.41406 a 0.69506949,0.69506949 0 0 0 -0.185547,0.0254 c -1.196631,0.31803 -2.356282,0.75904 -3.46289,1.31446 a 0.69506949,0.69506949 0 1 0 0.623047,1.24218 c 1.021473,-0.51268 2.092694,-0.91933 3.197265,-1.21289 a 0.69506949,0.69506949 0 0 0 -0.171875,-1.36914 z"
              id="path1769"
              inkscape:connector-curvature="0" />
      <path
              transform="rotate(-90)"
              style="fill:#bbc7d2;fill-opacity:1;stroke:#cdd9e5;stroke-width:0;stroke-linecap:round;stroke-miterlimit:4;stroke-dasharray:none;stroke-opacity:1"
              d="m -264.16257,36.796913 h 2.11667 V 61.1444 h -2.11667 z"
              id="rect1785" />
      <path
              style="fill:#020303;fill-opacity:1;stroke:none;stroke-width:0;stroke-linecap:round;stroke-miterlimit:4;stroke-dasharray:none;stroke-opacity:1"
              d="m 45.460914,260.98758 h 6.506449 c 0.249822,0 0.450942,0.20732 0.450942,0.46483 v 3.30367 c 0,0.25752 -0.20112,0.46483 -0.450942,0.46483 h -6.506449 c -0.249822,0 -0.450942,-0.20731 -0.450942,-0.46483 v -3.30367 c 0,-0.25751 0.20112,-0.46483 0.450942,-0.46483 z"
              id="rect1787" />
    </g>
  </g>
</svg>
